{"asset":{"version":"2.0","generator":"VECTARY"},"nodes":[{"translation":[-0.001028428687322057,0.04637425491866537,0.06412895615035046],"scale":[1,1,1],"rotation":[-0.2628327763323378,-0.01652810222886597,-0.004503135804314051,0.9646893154223672],"name":"Camera","camera":0},{"translation":[0.094847695569027,0.2089941363365822,0.3073433964913308],"scale":[0.001,0.001,0.001],"rotation":[0,-0.7071067811865475,0,0.7071067811865476],"name":"Point Light","extensions":{"KHR_lights_punctual":{"light":0}}},{"translation":[0.05874731366936506,0.07679749568099271,0.0190623151173524],"scale":[0.001,0.001,0.001],"rotation":[-0.4695997539305523,0.23688064677323656,-0.41134357952263556,0.7444192970887872],"name":"Directional Light","extensions":{"KHR_lights_punctual":{"light":1}}},{"translation":[0,0.0029999999999999983,0.015605045681164715],"scale":[0.0009999999999999998,0.0009999999999999998,0.001],"rotation":[-0.6649230842402962,-0.2464138721832192,-0.23978977479470157,0.6630673868800595],"name":"coin","mesh":0},{"translation":[0.0009226228931905162,0.04992004227626034,0.07058434854981978],"scale":[1,1,1],"rotation":[-0.29847029196076946,-0.011673027052913953,-0.0036507426721766323,0.954340556266062],"name":"Camera","camera":1}],"cameras":[{"name":"Camera","type":"perspective","extras":{"targetDistance":0.11231643860031677},"perspective":{"aspectRatio":1.2644163150492265,"yfov":0.6981317007977318,"zfar":50,"znear":0.001}},{"name":"Camera","type":"perspective","extras":{"targetDistance":0.08226822383986494},"perspective":{"aspectRatio":1.3746177370030581,"yfov":0.6108652381980153,"zfar":23.08850135605047,"znear":0.0013169777707525486}}],"extensions":{"KHR_lights_punctual":{"lights":[{"name":"Point Light","type":"point","intensity":0.2,"range":10000,"color":[1,1,1]},{"name":"Directional Light","type":"directional","intensity":0.4,"color":[1,1,1]}]}},"materials":[{"pbrMetallicRoughness":{"baseColorFactor":[0.907547199521614,0.6592239918133873,0.11129941482466024,1],"metallicFactor":0.5,"roughnessFactor":0.28},"name":"3D Text material 6","emissiveFactor":[0,0,0],"alphaMode":"OPAQUE","doubleSided":false}],"meshes":[{"primitives":[{"mode":4,"attributes":{"POSITION":1,"NORMAL":2},"material":0,"indices":0}]}],"accessors":[{"bufferView":0,"byteOffset":0,"componentType":5125,"count":2424,"type":"SCALAR"},{"bufferView":1,"byteOffset":0,"componentType":5126,"count":1410,"max":[2.8320465087890625,2.42319917678833,6.89492130279541],"min":[-2.8320465087890625,-2.42319917678833,0],"type":"VEC3"},{"bufferView":2,"byteOffset":0,"componentType":5126,"count":1410,"type":"VEC3"}],"bufferViews":[{"buffer":0,"byteOffset":0,"byteLength":9696,"target":34963},{"buffer":0,"byteOffset":9696,"byteLength":16920,"target":34962},{"buffer":0,"byteOffset":26616,"byteLength":16920,"target":34962}],"scene":0,"scenes":[{"nodes":[0,1,2,3,4],"name":"coin"}],"extensionsUsed":["KHR_texture_transform","KHR_lights_punctual"],"extensionsRequired":["KHR_lights_punctual"],"buffers":[{"byteLength":43536,"uri":"coin.bin"}]}