{"asset":{"version":"2.0","generator":"VECTARY"},"nodes":[{"translation":[0.03925273895424494,0.12470810896081776,0.018714118228213665],"scale":[0.001,0.001,0.001],"rotation":[0,-0.7071067811865475,0,0.7071067811865476],"name":"Point Light","extensions":{"KHR_lights_punctual":{"light":0}}},{"translation":[0,0,0],"scale":[0.001,0.001,0.001],"rotation":[-0.6649969193828223,-0.24037282960300646,-0.24037282960300652,0.6649969193828225],"name":"Group 1","children":[2,3]},{"translation":[9.500118530139485,-12.022871237222137,1.8109052364538414],"scale":[1,1,1],"rotation":[0,0,0,1],"name":"coin","mesh":0},{"translation":[0,0,0],"scale":[1,1,1],"rotation":[0,0,0,1],"name":"threeD plane"},{"translation":[0.0015381376521268564,0.05057845509234377,0.09613057251989968],"scale":[1,1,1],"rotation":[-0.2538703063974088,-0.016561287254074297,-0.004347509957469686,0.9670867026545984],"name":"Camera","camera":0}],"extensions":{"KHR_lights_punctual":{"lights":[{"name":"Point Light","type":"point","intensity":0.2,"range":10000,"color":[1,1,1]}]}},"materials":[{"pbrMetallicRoughness":{"baseColorFactor":[0.9157501292792527,0.7226724536002546,0.2271365255051489,1],"metallicFactor":0.55,"roughnessFactor":0},"name":"3D Text material 6","emissiveFactor":[0,0,0],"alphaMode":"OPAQUE","doubleSided":false}],"meshes":[{"primitives":[{"mode":4,"attributes":{"POSITION":1,"NORMAL":2},"material":0,"indices":0}]}],"accessors":[{"bufferView":0,"byteOffset":0,"componentType":5125,"count":2424,"type":"SCALAR"},{"bufferView":1,"byteOffset":0,"componentType":5126,"count":1410,"max":[2.8320465087890625,2.42319917678833,6.89492130279541],"min":[-2.8320465087890625,-2.42319917678833,0],"type":"VEC3"},{"bufferView":2,"byteOffset":0,"componentType":5126,"count":1410,"type":"VEC3"}],"bufferViews":[{"buffer":0,"byteOffset":0,"byteLength":9696,"target":34963},{"buffer":0,"byteOffset":9696,"byteLength":16920,"target":34962},{"buffer":0,"byteOffset":26616,"byteLength":16920,"target":34962}],"cameras":[{"name":"Camera","type":"perspective","extras":{"targetDistance":0.11333078165078617},"perspective":{"aspectRatio":1.3746177370030581,"yfov":0.6108652381980153,"zfar":24.268996602390114,"znear":0.0014381338618242485}}],"scene":0,"scenes":[{"nodes":[0,1,4],"name":"coin"}],"extensionsUsed":["KHR_texture_transform","KHR_lights_punctual"],"extensionsRequired":["KHR_lights_punctual"],"buffers":[{"byteLength":43536,"uri":"coin.bin"}]}