{"asset":{"version":"2.0","generator":"VECTARY"},"nodes":[{"translation":[0.03925273895424494,0.12470810896081776,0.018714118228213665],"scale":[0.001,0.001,0.001],"rotation":[0,-0.7071067811865475,0,0.7071067811865476],"name":"Point Light","extensions":{"KHR_lights_punctual":{"light":0}}},{"translation":[0,0,0],"scale":[0.001,0.001,0.001],"rotation":[-0.6649969193828223,-0.24037282960300646,-0.24037282960300652,0.6649969193828225],"name":"Group 1","children":[2]},{"translation":[0,0,0],"scale":[1,1,1],"rotation":[0,0,0,1],"name":"threeD plane","children":[3,4,5,6,7,8,9,10,11,12,13,14,15,16,17,18]},{"translation":[0,0,0.46548586513910406],"scale":[0.44511913185671853,0.44511913185671853,0.008156605071954402],"rotation":[5.077407261265242e-19,6.0666377918277034e-18,5.845817507576392e-18,1],"name":"Cylinder & 3D Text 3 - c & 3D Text 3 - h & 3D Text 3 - e & 3D Text 3 - c & 3D Text 3 - k & 3D Text 3 - o & 3D Text 3 - u & 3D Text 3 - t & 3D Text 3 - m & 3D Text 3 - y & 3D Text 3 - w & 3D Text 3 - o & 3D Text 3 - r & 3D Text 3 - k & coin slot - baked","mesh":0},{"translation":[-4.030992643728098,-17.33948391485882,1.2128933622154605],"scale":[0.04682238645221238,0.04682238645221238,0.04682238645221238],"rotation":[2.170840945372483e-19,6.069309476437209e-18,4.631127350127945e-18,1],"name":"ball - baked","mesh":1},{"translation":[7.5481735633911775,16.609579319878637,-1.3183637857437134],"scale":[1,1,1],"rotation":[0,0,0.0017510390560880956,0.9999984669299369],"name":"road","mesh":2},{"translation":[11.93230368010785,-0.5086753477925602,1.9786750945807166],"scale":[1.1580231249023025,1.1580231249023025,1.1580231249023025],"rotation":[-0.2818092500308424,0.024484869087215946,0.10737269160337053,0.9531291323218923],"name":"3D Text 2 - o - baked","mesh":3},{"translation":[6.795354629333724,0.2136637232893439,2.100298568929049],"scale":[1.320169532748251,1.3201695327482514,1.3201695327482512],"rotation":[-0.17824464113044874,-0.17697660345530136,0.6819894536832236,0.6868759093188236],"name":"3D Text 1 - l - baked 1","mesh":4},{"translation":[9.83501792778333,4.263712024682714,2.7356779023426663],"scale":[1.3124590143690187,1.3124590143690185,1.3124590143690178],"rotation":[-0.29336213331757366,-0.2498326187369857,0.7862719833860077,0.4830100304265076],"name":"3D Text 1 - l - baked","mesh":5},{"translation":[1.938520207713851,-5.07615297828689,2.0392395029153003],"scale":[1,1,1],"rotation":[-0.21029346603589918,-0.03157429654848573,0.1450837133694616,0.9662972824421088],"name":"3D Text - e - baked","mesh":6},{"translation":[-2.8516919304421027,-10.17307764210232,1.156855298564186],"scale":[0.7906447467175031,0.9848722470790412,0.8316506346075255],"rotation":[0.014780892936162408,-0.014122713847618115,0.6251365919264537,0.7802475989018912],"name":"H - H - baked","mesh":7},{"translation":[-5.102611792495367,14.738975233060987,2.688981496135667],"scale":[0.1182001985432183,0.0953188756344678,0.1605586084161593],"rotation":[-0.017877515451837845,-0.7005626726821473,-0.01756195442686171,0.7131506950444798],"name":"l ring","mesh":8},{"translation":[-0.25573319682822415,14.81057303221873,2.602659253840301],"scale":[0.09048860106118067,0.09048860106118067,0.145969146269797],"rotation":[-0.017877515451837852,-0.7005626726821473,-0.017561954426861717,0.7131506950444798],"name":"m ring","mesh":9},{"translation":[4.610720846592692,15.176852159710936,2.5159883755082184],"scale":[0.07415866268145029,0.07343028735342354,0.11845200643645859],"rotation":[-0.09634194559682734,-0.6943626491041639,-0.09464138697151761,0.7068392666793302],"name":"sm ring","mesh":10},{"translation":[-1.9146999678352365,3.7333717574189826,1.5278648138046265],"scale":[1,1,0.7023481160365802],"rotation":[0,0,0,1],"name":"Box - baked 1","mesh":11},{"translation":[-11.025761377790968,3.7650286704944413,1.5278648138046265],"scale":[1,1,1.1201162503605988],"rotation":[0,0,0,1],"name":"Box - baked 2","mesh":12},{"translation":[-11.025761377790968,-4.124011049993385,1.5278648138046265],"scale":[1,0.7212880323866595,0.7065266660539087],"rotation":[0,0,0,1],"name":"Box - baked 3","mesh":13},{"translation":[-11.025761377790968,-10.764365781117078,1.5278648138046265],"scale":[1,0.7517106599668195,0.4037017523407263],"rotation":[0,0,0,1],"name":"Box - baked","mesh":14},{"translation":[16.295941742543167,-4.3130435096915,5.534706667014165],"scale":[1.0876118492115394,1.0146228297704052,1.2735780732020443],"rotation":[-0.7538605634107342,-0.037935271728501765,-0.03447507956656455,0.6550317816578172],"name":"! - ! - baked","mesh":15},{"translation":[0.0015381376521268564,0.05057845509234377,0.09613057251989968],"scale":[1,1,1],"rotation":[-0.2538703063974088,-0.016561287254074297,-0.004347509957469686,0.9670867026545984],"name":"Camera","camera":0}],"extensions":{"KHR_lights_punctual":{"lights":[{"name":"Point Light","type":"point","intensity":0.2,"range":10000,"color":[1,1,1]}]}},"materials":[{"pbrMetallicRoughness":{"baseColorFactor":[0.6800203421720954,0.8751375823652049,1,1],"metallicFactor":0,"roughnessFactor":0.2},"name":"Cylinder material","emissiveFactor":[0,0,0],"alphaMode":"OPAQUE","doubleSided":false},{"pbrMetallicRoughness":{"baseColorFactor":[0.18354899846495082,0.23099812432326744,0.9322768502645428,1],"metallicFactor":0,"roughnessFactor":0.2},"name":"Sphere material","emissiveFactor":[0,0,0],"alphaMode":"OPAQUE","doubleSided":false},{"pbrMetallicRoughness":{"baseColorFactor":[0.8912620368134188,0.5174013674966733,0.907547199521614,1],"metallicFactor":0,"roughnessFactor":0.2},"name":"3D Text material 8","emissiveFactor":[0,0,0],"alphaMode":"OPAQUE","doubleSided":false},{"pbrMetallicRoughness":{"baseColorFactor":[0.2120443975022877,0.48776520187781053,0.5668097348966382,1],"metallicFactor":0,"roughnessFactor":0.2},"name":"3D Text material 5","emissiveFactor":[0,0,0],"alphaMode":"OPAQUE","doubleSided":false},{"pbrMetallicRoughness":{"baseColorFactor":[0.2120443975022877,0.48776520187781053,0.5668097348966382,1],"metallicFactor":0,"roughnessFactor":0.2},"name":"3D Text material 2","emissiveFactor":[0,0,0],"alphaMode":"OPAQUE","doubleSided":false},{"pbrMetallicRoughness":{"baseColorFactor":[0.2120443975022877,0.48776520187781053,0.5668097348966382,1],"metallicFactor":0,"roughnessFactor":0.2},"name":"3D Text material 4","emissiveFactor":[0,0,0],"alphaMode":"OPAQUE","doubleSided":false},{"pbrMetallicRoughness":{"baseColorFactor":[0.2120443975022877,0.48776520187781053,0.5668097348966382,1],"metallicFactor":0,"roughnessFactor":0},"name":"3D Text material 3","emissiveFactor":[0,0,0],"alphaMode":"OPAQUE","doubleSided":false},{"pbrMetallicRoughness":{"baseColorFactor":[0.2120443975022877,0.48776520187781053,0.5668097348966382,1],"metallicFactor":0,"roughnessFactor":0},"name":"3D Text material","emissiveFactor":[0,0,0],"alphaMode":"OPAQUE","doubleSided":false},{"pbrMetallicRoughness":{"baseColorFactor":[0.02422294206753424,0.09387586652557776,0.17677432164090326,1],"metallicFactor":0,"roughnessFactor":0.2},"name":"Torus material 1","emissiveFactor":[0,0,0],"alphaMode":"OPAQUE","doubleSided":false},{"pbrMetallicRoughness":{"baseColorFactor":[0.7969165429079781,0.6120655998656237,0.1390224537347025,1],"metallicFactor":0,"roughnessFactor":0.2},"name":"Torus material","emissiveFactor":[0,0,0],"alphaMode":"OPAQUE","doubleSided":false},{"pbrMetallicRoughness":{"baseColorFactor":[0.02422294206753424,0.09387586652557776,0.17677432164090326,1],"metallicFactor":0,"roughnessFactor":0.2},"name":"Torus material 2","emissiveFactor":[0,0,0],"alphaMode":"OPAQUE","doubleSided":false},{"pbrMetallicRoughness":{"baseColorFactor":[0.002585825596234168,0.25084023643640047,0.2888159727972186,1],"metallicFactor":0,"roughnessFactor":0.2},"name":"Box material 2","emissiveFactor":[0,0,0],"alphaMode":"OPAQUE","doubleSided":false},{"pbrMetallicRoughness":{"baseColorFactor":[0.002585825596234168,0.25084023643640047,0.2888159727972186,1],"metallicFactor":0,"roughnessFactor":0.2},"name":"Box material 1","emissiveFactor":[0,0,0],"alphaMode":"OPAQUE","doubleSided":false},{"pbrMetallicRoughness":{"baseColorFactor":[0.002585825596234168,0.25084023643640047,0.2888159727972186,1],"metallicFactor":0,"roughnessFactor":0.2},"name":"Box material","emissiveFactor":[0,0,0],"alphaMode":"OPAQUE","doubleSided":false},{"pbrMetallicRoughness":{"baseColorFactor":[0.002585825596234168,0.25084023643640047,0.2888159727972186,1],"metallicFactor":0,"roughnessFactor":0.2},"name":"Box material 3","emissiveFactor":[0,0,0],"alphaMode":"OPAQUE","doubleSided":false},{"pbrMetallicRoughness":{"baseColorFactor":[0.2120443975022877,0.48776520187781053,0.5668097348966382,1],"metallicFactor":0,"roughnessFactor":0},"name":"3D Text material 1","emissiveFactor":[0,0,0],"alphaMode":"OPAQUE","doubleSided":false}],"meshes":[{"primitives":[{"mode":4,"attributes":{"POSITION":1,"NORMAL":2},"material":0,"indices":0}]},{"primitives":[{"mode":4,"attributes":{"POSITION":4,"NORMAL":5},"material":1,"indices":3}]},{"primitives":[{"mode":4,"attributes":{"POSITION":7,"NORMAL":8},"material":2,"indices":6}]},{"primitives":[{"mode":4,"attributes":{"POSITION":10,"NORMAL":11},"material":3,"indices":9}]},{"primitives":[{"mode":4,"attributes":{"POSITION":13,"NORMAL":14},"material":4,"indices":12}]},{"primitives":[{"mode":4,"attributes":{"POSITION":16,"NORMAL":17},"material":5,"indices":15}]},{"primitives":[{"mode":4,"attributes":{"POSITION":19,"NORMAL":20},"material":6,"indices":18}]},{"primitives":[{"mode":4,"attributes":{"POSITION":22,"NORMAL":23},"material":7,"indices":21}]},{"primitives":[{"mode":4,"attributes":{"POSITION":25,"NORMAL":26},"material":8,"indices":24}]},{"primitives":[{"mode":4,"attributes":{"POSITION":28,"NORMAL":29},"material":9,"indices":27}]},{"primitives":[{"mode":4,"attributes":{"POSITION":31,"NORMAL":32},"material":10,"indices":30}]},{"primitives":[{"mode":4,"attributes":{"POSITION":34,"NORMAL":35},"material":11,"indices":33}]},{"primitives":[{"mode":4,"attributes":{"POSITION":37,"NORMAL":38},"material":12,"indices":36}]},{"primitives":[{"mode":4,"attributes":{"POSITION":40,"NORMAL":41},"material":13,"indices":39}]},{"primitives":[{"mode":4,"attributes":{"POSITION":43,"NORMAL":44},"material":14,"indices":42}]},{"primitives":[{"mode":4,"attributes":{"POSITION":46,"NORMAL":47},"material":15,"indices":45}]}],"accessors":[{"bufferView":0,"byteOffset":0,"componentType":5125,"count":10320,"type":"SCALAR"},{"bufferView":1,"byteOffset":0,"componentType":5126,"count":6778,"max":[50,49.901336669921875,100],"min":[-50,-49.901336669921875,-2.842170943040401e-14],"type":"VEC3"},{"bufferView":2,"byteOffset":0,"componentType":5126,"count":6778,"type":"VEC3"},{"bufferView":3,"byteOffset":0,"componentType":5125,"count":1260,"type":"SCALAR"},{"bufferView":4,"byteOffset":0,"componentType":5126,"count":212,"max":[54.69870376586914,54.3990592956543,110],"min":[-53.5034065246582,-54.3990592956543,0],"type":"VEC3"},{"bufferView":5,"byteOffset":0,"componentType":5126,"count":212,"type":"VEC3"},{"bufferView":6,"byteOffset":0,"componentType":5125,"count":1347,"type":"SCALAR"},{"bufferView":7,"byteOffset":0,"componentType":5126,"count":473,"max":[9.85137939453125,1.374738097190857,2.790358781814575],"min":[-21.423933029174805,-10.650940895080566,1.8586561679840088],"type":"VEC3"},{"bufferView":8,"byteOffset":0,"componentType":5126,"count":473,"type":"VEC3"},{"bufferView":9,"byteOffset":0,"componentType":5125,"count":20400,"type":"SCALAR"},{"bufferView":10,"byteOffset":0,"componentType":5126,"count":3404,"max":[2.7576189041137695,1.351773977279663,5.0466227531433105],"min":[-2.7576189041137695,-1.351773977279663,1.795846332980188e-17],"type":"VEC3"},{"bufferView":11,"byteOffset":0,"componentType":5126,"count":3404,"type":"VEC3"},{"bufferView":12,"byteOffset":0,"componentType":5125,"count":10404,"type":"SCALAR"},{"bufferView":13,"byteOffset":0,"componentType":5126,"count":1736,"max":[1.0656695365905762,1.1520743370056152,8.323439598083496],"min":[-1.0656695365905762,-1.1520743370056152,1.3308608137039169e-17],"type":"VEC3"},{"bufferView":14,"byteOffset":0,"componentType":5126,"count":1736,"type":"VEC3"},{"bufferView":15,"byteOffset":0,"componentType":5125,"count":10404,"type":"SCALAR"},{"bufferView":16,"byteOffset":0,"componentType":5126,"count":1736,"max":[1.0656695365905762,1.1520743370056152,8.323439598083496],"min":[-1.0656695365905762,-1.1520743370056152,1.3308608137039169e-17],"type":"VEC3"},{"bufferView":17,"byteOffset":0,"componentType":5126,"count":1736,"type":"VEC3"},{"bufferView":18,"byteOffset":0,"componentType":5125,"count":22392,"type":"SCALAR"},{"bufferView":19,"byteOffset":0,"componentType":5126,"count":3910,"max":[3.2015044689178467,1.6334205865859985,6.0981035232543945],"min":[-3.2015044689178467,-1.6334205865859985,-1.1102230246251565e-16],"type":"VEC3"},{"bufferView":20,"byteOffset":0,"componentType":5126,"count":3910,"type":"VEC3"},{"bufferView":21,"byteOffset":0,"componentType":5125,"count":21636,"type":"SCALAR"},{"bufferView":22,"byteOffset":0,"componentType":5126,"count":3712,"max":[5.3156046867370605,2.393773078918457,11.170940399169922],"min":[-5.312747478485107,-2.393773078918457,2.5516790773674953e-16],"type":"VEC3"},{"bufferView":23,"byteOffset":0,"componentType":5126,"count":3712,"type":"VEC3"},{"bufferView":24,"byteOffset":0,"componentType":5125,"count":966,"type":"SCALAR"},{"bufferView":25,"byteOffset":0,"componentType":5126,"count":190,"max":[58,57.83782196044922,15.608451843261719],"min":[-18.408628463745117,-57.83782196044922,0.39154767990112305],"type":"VEC3"},{"bufferView":26,"byteOffset":0,"componentType":5126,"count":190,"type":"VEC3"},{"bufferView":27,"byteOffset":0,"componentType":5125,"count":888,"type":"SCALAR"},{"bufferView":28,"byteOffset":0,"componentType":5126,"count":180,"max":[58,57.83782196044922,15.608451843261719],"min":[-23.247371673583984,-57.83782196044922,0.39154767990112305],"type":"VEC3"},{"bufferView":29,"byteOffset":0,"componentType":5126,"count":180,"type":"VEC3"},{"bufferView":30,"byteOffset":0,"componentType":5125,"count":888,"type":"SCALAR"},{"bufferView":31,"byteOffset":0,"componentType":5126,"count":180,"max":[58,57.83782196044922,15.608451843261719],"min":[-23.247371673583984,-57.83782196044922,0.39154767990112305],"type":"VEC3"},{"bufferView":32,"byteOffset":0,"componentType":5126,"count":180,"type":"VEC3"},{"bufferView":33,"byteOffset":0,"componentType":5125,"count":1296,"type":"SCALAR"},{"bufferView":34,"byteOffset":0,"componentType":5126,"count":219,"max":[4.64115571975708,4.64115571975708,9.28231143951416],"min":[-4.64115571975708,-4.64115571975708,0],"type":"VEC3"},{"bufferView":35,"byteOffset":0,"componentType":5126,"count":219,"type":"VEC3"},{"bufferView":36,"byteOffset":0,"componentType":5125,"count":1296,"type":"SCALAR"},{"bufferView":37,"byteOffset":0,"componentType":5126,"count":219,"max":[4.64115571975708,4.64115571975708,9.28231143951416],"min":[-4.64115571975708,-4.64115571975708,0],"type":"VEC3"},{"bufferView":38,"byteOffset":0,"componentType":5126,"count":219,"type":"VEC3"},{"bufferView":39,"byteOffset":0,"componentType":5125,"count":1296,"type":"SCALAR"},{"bufferView":40,"byteOffset":0,"componentType":5126,"count":219,"max":[4.64115571975708,4.64115571975708,9.28231143951416],"min":[-4.64115571975708,-4.64115571975708,0],"type":"VEC3"},{"bufferView":41,"byteOffset":0,"componentType":5126,"count":219,"type":"VEC3"},{"bufferView":42,"byteOffset":0,"componentType":5125,"count":1296,"type":"SCALAR"},{"bufferView":43,"byteOffset":0,"componentType":5126,"count":219,"max":[4.64115571975708,4.64115571975708,9.28231143951416],"min":[-4.64115571975708,-4.64115571975708,0],"type":"VEC3"},{"bufferView":44,"byteOffset":0,"componentType":5126,"count":219,"type":"VEC3"},{"bufferView":45,"byteOffset":0,"componentType":5125,"count":18552,"type":"SCALAR"},{"bufferView":46,"byteOffset":0,"componentType":5126,"count":3112,"max":[2.6801645755767822,4.2929229736328125,9.85311508178711],"min":[-1.8880959749221802,-2.452338933944702,-0.4651987552642822],"type":"VEC3"},{"bufferView":47,"byteOffset":0,"componentType":5126,"count":3112,"type":"VEC3"}],"bufferViews":[{"buffer":0,"byteOffset":0,"byteLength":41280,"target":34963},{"buffer":0,"byteOffset":41280,"byteLength":81336,"target":34962},{"buffer":0,"byteOffset":122616,"byteLength":81336,"target":34962},{"buffer":0,"byteOffset":203952,"byteLength":5040,"target":34963},{"buffer":0,"byteOffset":208992,"byteLength":2544,"target":34962},{"buffer":0,"byteOffset":211536,"byteLength":2544,"target":34962},{"buffer":0,"byteOffset":214080,"byteLength":5388,"target":34963},{"buffer":0,"byteOffset":219468,"byteLength":5676,"target":34962},{"buffer":0,"byteOffset":225144,"byteLength":5676,"target":34962},{"buffer":0,"byteOffset":230820,"byteLength":81600,"target":34963},{"buffer":0,"byteOffset":312420,"byteLength":40848,"target":34962},{"buffer":0,"byteOffset":353268,"byteLength":40848,"target":34962},{"buffer":0,"byteOffset":394116,"byteLength":41616,"target":34963},{"buffer":0,"byteOffset":435732,"byteLength":20832,"target":34962},{"buffer":0,"byteOffset":456564,"byteLength":20832,"target":34962},{"buffer":0,"byteOffset":477396,"byteLength":41616,"target":34963},{"buffer":0,"byteOffset":519012,"byteLength":20832,"target":34962},{"buffer":0,"byteOffset":539844,"byteLength":20832,"target":34962},{"buffer":0,"byteOffset":560676,"byteLength":89568,"target":34963},{"buffer":0,"byteOffset":650244,"byteLength":46920,"target":34962},{"buffer":0,"byteOffset":697164,"byteLength":46920,"target":34962},{"buffer":0,"byteOffset":744084,"byteLength":86544,"target":34963},{"buffer":0,"byteOffset":830628,"byteLength":44544,"target":34962},{"buffer":0,"byteOffset":875172,"byteLength":44544,"target":34962},{"buffer":0,"byteOffset":919716,"byteLength":3864,"target":34963},{"buffer":0,"byteOffset":923580,"byteLength":2280,"target":34962},{"buffer":0,"byteOffset":925860,"byteLength":2280,"target":34962},{"buffer":0,"byteOffset":928140,"byteLength":3552,"target":34963},{"buffer":0,"byteOffset":931692,"byteLength":2160,"target":34962},{"buffer":0,"byteOffset":933852,"byteLength":2160,"target":34962},{"buffer":0,"byteOffset":936012,"byteLength":3552,"target":34963},{"buffer":0,"byteOffset":939564,"byteLength":2160,"target":34962},{"buffer":0,"byteOffset":941724,"byteLength":2160,"target":34962},{"buffer":0,"byteOffset":943884,"byteLength":5184,"target":34963},{"buffer":0,"byteOffset":949068,"byteLength":2628,"target":34962},{"buffer":0,"byteOffset":951696,"byteLength":2628,"target":34962},{"buffer":0,"byteOffset":954324,"byteLength":5184,"target":34963},{"buffer":0,"byteOffset":959508,"byteLength":2628,"target":34962},{"buffer":0,"byteOffset":962136,"byteLength":2628,"target":34962},{"buffer":0,"byteOffset":964764,"byteLength":5184,"target":34963},{"buffer":0,"byteOffset":969948,"byteLength":2628,"target":34962},{"buffer":0,"byteOffset":972576,"byteLength":2628,"target":34962},{"buffer":0,"byteOffset":975204,"byteLength":5184,"target":34963},{"buffer":0,"byteOffset":980388,"byteLength":2628,"target":34962},{"buffer":0,"byteOffset":983016,"byteLength":2628,"target":34962},{"buffer":0,"byteOffset":985644,"byteLength":74208,"target":34963},{"buffer":0,"byteOffset":1059852,"byteLength":37344,"target":34962},{"buffer":0,"byteOffset":1097196,"byteLength":37344,"target":34962}],"cameras":[{"name":"Camera","type":"perspective","extras":{"targetDistance":0.11333078165078617},"perspective":{"aspectRatio":1.2644163150492265,"yfov":0.6108652381980153,"zfar":24.268996602390114,"znear":0.0014381338618242485}}],"scene":0,"scenes":[{"nodes":[0,1,19],"name":"hello"}],"extensionsUsed":["KHR_texture_transform","KHR_lights_punctual"],"extensionsRequired":["KHR_lights_punctual"],"buffers":[{"byteLength":1134540,"uri":"hello.bin"}]}